<svg width="512" height="512" viewBox="0 0 512 512" fill="none" xmlns="http://www.w3.org/2000/svg">
  <defs>
    <linearGradient id="bg-gradient" x1="0%" y1="0%" x2="100%" y2="100%">
      <stop offset="0%" style="stop-color:#a855f7;" />
      <stop offset="100%" style="stop-color:#ec4899;" />
    </linearGradient>
  </defs>

  <!-- Background -->
  <rect width="512" height="512" rx="96" fill="url(#bg-gradient)"/>

  <!-- Pixel Art Group - Using crispEdges for a sharp pixel look -->
  <g shape-rendering="crispEdges" transform="translate(64, 96) scale(8)">

    <!-- Camera Body (Dark Gray Outline) -->
    <rect x="2" y="22" width="40" height="16" fill="#374151"/>
    <!-- Camera Body (Light Gray Fill) -->
    <rect x="3" y="23" width="38" height="14" fill="#E5E7EB"/>

    <!-- Lens (Outer Ring - Dark Gray) -->
    <rect x="20" y="26" width="10" height="8" fill="#374151"/>
    <!-- Lens (Inner Ring - Medium Gray) -->
    <rect x="21" y="27" width="8" height="6" fill="#6B7280"/>
    <!-- Lens (Center - Black) -->
    <rect x="22" y="28" width="6" height="4" fill="#111827"/>
    <!-- Lens Shine -->
    <rect x="26" y="29" width="1" height="1" fill="#F9FAFB"/>
    <rect x="25" y="28" width="1" height="1" fill="#F9FAFB"/>

    <!-- Red Button -->
    <rect x="7" y="24" width="4" height="2" fill="#EF4444"/>

    <!-- Photo coming out (White paper) -->
    <rect x="12" y="6" width="24" height="20" fill="#FFFFFF"/>
    <!-- Photo image area -->
    <rect x="14" y="8" width="20" height="16" fill="#9CA3AF"/>
    
    <!-- Simple pixel art inside photo (a smiley face) -->
    <rect x="18" y="12" width="2" height="2" fill="#111827" /> <!-- Left eye -->
    <rect x="28" y="12" width="2" height="2" fill="#111827" /> <!-- Right eye -->
    <rect x="20" y="18" width="1" height="1" fill="#111827" />
    <rect x="21" y="19" width="6" height="1" fill="#111827" />
    <rect x="27" y="18" width="1" height="1" fill="#111827" />

     <!-- Rainbow strip on camera body -->
    <rect x="24" y="34" width="2" height="1" fill="#F87171"/>
    <rect x="26" y="34" width="2" height="1" fill="#FBBF24"/>
    <rect x="28" y="34" width="2" height="1" fill="#34D399"/>
    <rect x="30" y="34" width="2" height="1" fill="#60A5FA"/>

  </g>
</svg>
